<?xml version="1.0" encoding="UTF-8" standalone="no"?>
<!DOCTYPE svg PUBLIC "-//W3C//DTD SVG 1.1//EN" "http://www.w3.org/Graphics/SVG/1.1/DTD/svg11.dtd">
<svg width="100%" height="100%" viewBox="0 0 24 24" version="1.1" xmlns="http://www.w3.org/2000/svg" xmlns:xlink="http://www.w3.org/1999/xlink" xml:space="preserve" xmlns:serif="http://www.serif.com/" style="fill-rule:evenodd;clip-rule:evenodd;stroke-linejoin:round;stroke-miterlimit:2;">
    <rect x="0" y="0.009" width="143" height="23.981" style="fill:none;"/>
    <g transform="matrix(0.0564363,0.0603288,-0.0565573,0.0529082,24.537,12.6435)">
        <g>
            <g transform="matrix(0.390426,-0.44258,0.417355,0.414024,-804.185,614.794)">
                <path d="M1434.07,74.741C1570.1,74.741 1680.37,185.013 1680.37,321.041C1680.37,457.069 1570.1,567.341 1434.07,567.341C1298.04,567.341 1187.77,457.069 1187.77,321.041C1187.77,185.013 1298.04,74.741 1434.07,74.741Z" style="fill:rgb(53,67,134);fill-opacity:0.57;"/>
            </g>
            <g transform="matrix(0.390426,-0.44258,0.417355,0.414024,-804.185,614.794)">
                <path d="M1361.27,248.695C1394.85,241.313 1413.22,241.9 1447.4,242.768C1477.45,243.531 1520.4,258.771 1523.55,249.807C1528.22,236.488 1507.57,225.391 1501.07,223.359C1431.66,201.663 1367.62,217.591 1342.92,230.137C1326.93,238.265 1327.81,256.05 1361.27,248.695Z" style="fill:rgb(29,41,87);fill-opacity:0.43;"/>
            </g>
            <g transform="matrix(0.390426,-0.44258,0.417355,0.414024,-804.185,614.794)">
                <path d="M1557.9,269.429C1592.18,287.286 1644.36,320.187 1672.15,347.703C1688.06,363.46 1680.4,325.192 1680.6,319.006C1681.29,297.303 1611.1,255.198 1591.84,249.029C1546.91,234.634 1539.93,261.951 1557.9,269.429Z" style="fill:rgb(29,41,87);fill-opacity:0.43;"/>
            </g>
            <g transform="matrix(0.390426,-0.44258,0.417355,0.414024,-804.185,614.794)">
                <path d="M1194.19,369.36C1215.38,324.764 1434.8,133.806 1679.05,368.928C1669.44,451.829 1580.41,526.165 1547.06,531.523C1428.37,550.589 1422.55,541.819 1311.79,504.745C1283.04,495.121 1221.31,468.571 1218.26,433.534C1218.24,433.312 1192.97,371.939 1194.19,369.36Z" style="fill:rgb(29,41,87);fill-opacity:0.53;"/>
            </g>
            <g transform="matrix(0.390426,-0.44258,0.417355,0.414024,-804.185,614.794)">
                <path d="M1378.7,102.179C1382.68,102.179 1385.91,105.237 1385.91,109.01C1385.91,112.782 1382.68,115.841 1378.7,115.841C1374.72,115.841 1371.49,112.782 1371.49,109.01C1371.49,105.237 1374.72,102.179 1378.7,102.179Z" style="fill:white;"/>
            </g>
            <g transform="matrix(0.390426,-0.44258,0.417355,0.414024,-804.185,614.794)">
                <path d="M1594.1,170.02C1598.09,170.02 1601.32,173.078 1601.32,176.851C1601.32,180.623 1598.09,183.682 1594.1,183.682C1590.12,183.682 1586.89,180.623 1586.89,176.851C1586.89,173.078 1590.12,170.02 1594.1,170.02Z" style="fill:white;"/>
            </g>
            <g transform="matrix(0.390426,-0.44258,0.417355,0.414024,-804.185,614.794)">
                <path d="M1547.53,304.88C1551.51,304.88 1554.74,307.939 1554.74,311.711C1554.74,315.484 1551.51,318.542 1547.53,318.542C1543.54,318.542 1540.31,315.484 1540.31,311.711C1540.31,307.939 1543.54,304.88 1547.53,304.88Z" style="fill:white;"/>
            </g>
            <g transform="matrix(0.390426,-0.44258,0.417355,0.414024,-804.185,614.794)">
                <path d="M1643.68,388.865C1647.66,388.865 1650.89,391.923 1650.89,395.696C1650.89,399.469 1647.66,402.527 1643.68,402.527C1639.69,402.527 1636.46,399.469 1636.46,395.696C1636.46,391.923 1639.69,388.865 1643.68,388.865Z" style="fill:white;"/>
            </g>
            <g transform="matrix(0.390426,-0.44258,0.417355,0.414024,-804.185,614.794)">
                <path d="M1331.23,277.863C1335.21,277.863 1338.44,280.922 1338.44,284.694C1338.44,288.467 1335.21,291.525 1331.23,291.525C1327.24,291.525 1324.02,288.467 1324.02,284.694C1324.02,280.922 1327.24,277.863 1331.23,277.863Z" style="fill:white;"/>
            </g>
            <g transform="matrix(0.390426,-0.44258,0.417355,0.414024,-804.185,614.794)">
                <path d="M1242.42,214.857C1246.4,214.857 1249.63,217.915 1249.63,221.688C1249.63,225.461 1246.4,228.519 1242.42,228.519C1238.43,228.519 1235.2,225.461 1235.2,221.688C1235.2,217.915 1238.43,214.857 1242.42,214.857Z" style="fill:white;"/>
            </g>
            <g transform="matrix(0.390426,-0.44258,0.417355,0.414024,-804.185,614.794)">
                <path d="M1188.51,301.799C1191.36,300.879 1206.59,283.183 1212.03,278.849C1232.18,262.789 1273.5,239.618 1300.23,246.081C1317.82,250.335 1302.1,268.238 1294.1,273.055C1261.92,292.435 1228.73,311.502 1202.22,338.61C1188.3,352.844 1189.34,352.774 1188.9,324.629C1188.78,317.062 1188.62,308.479 1188.51,301.799Z" style="fill:rgb(29,41,87);fill-opacity:0.43;"/>
            </g>
            <g transform="matrix(0.390426,-0.44258,0.417355,0.414024,-804.185,614.794)">
                <path d="M1461.77,138.947C1462.92,138.607 1463.78,138.441 1464.57,138.108C1466.5,137.292 1466.86,136.206 1465.87,134.314C1464.87,132.414 1463.18,131.29 1461.08,129.962C1461.32,133.132 1461.53,135.92 1461.77,138.947Z" style="fill:rgb(229,152,36);"/>
            </g>
            <g transform="matrix(0.390426,-0.44258,0.417355,0.414024,-804.185,614.794)">
                <path d="M1473.64,169.859C1474.54,159.072 1473.2,147.989 1470.13,141.023C1468.09,142.813 1465.76,143.952 1463.14,144.5C1455.36,146.124 1447.75,145.546 1440.28,142.901C1438.9,142.413 1437.5,141.98 1435.93,141.462C1436.58,146.624 1437.35,151.422 1437.75,156.251C1438.15,161.164 1438,166.1 1436.93,171.064C1449.55,175.561 1461.73,176.169 1473.64,169.859Z" style="fill:rgb(255,200,36);"/>
            </g>
            <g transform="matrix(0.390426,-0.44258,0.417355,0.414024,-804.185,614.794)">
                <path d="M1566.43,158.93C1566.41,158.834 1566.39,158.738 1566.37,158.641C1563.52,158.339 1560.64,158.152 1557.81,157.716C1546.83,156.027 1536.43,152.505 1526.51,147.57C1514.64,141.667 1502.91,135.507 1491.57,128.612C1485.21,124.74 1478.6,121.366 1471.27,119.702C1469.1,119.209 1466.87,118.778 1464.66,118.768C1461.62,118.755 1460.87,120.022 1461.66,122.934C1462.16,124.808 1463.29,126.157 1464.86,127.252C1466.89,128.665 1468.94,130.064 1470.35,132.193C1474.3,138.149 1476.86,144.615 1477.73,151.732C1477.77,152.091 1477.96,152.432 1478.08,152.778C1480.5,152.397 1482.77,151.893 1485.06,151.709C1492.06,151.148 1498.92,152.018 1505.66,153.949C1515.71,156.832 1525.79,159.498 1536.25,160.542C1544.17,161.332 1552.04,161.464 1559.9,160.211C1562.09,159.863 1564.25,159.362 1566.43,158.93Z" style="fill:rgb(255,200,36);"/>
            </g>
            <g transform="matrix(0.390426,-0.44258,0.417355,0.414024,-804.185,614.794)">
                <path d="M1237.99,459.706C1261.78,439.33 1282.42,416.687 1297.67,389.493C1297.01,388.316 1296.44,387.304 1295.81,386.186C1287.51,391.092 1279.12,392.923 1270.26,387.806C1270.08,388.145 1269.9,388.395 1269.8,388.672C1266.57,397.56 1261.62,405.445 1255.67,412.733C1247.56,422.678 1238.4,431.562 1228.45,439.657C1227.78,440.207 1227.11,440.765 1226.27,441.452C1229.85,447.659 1233.65,453.626 1237.99,459.706Z" style="fill:rgb(240,76,42);"/>
            </g>
            <g transform="matrix(0.390426,-0.44258,0.417355,0.414024,-804.185,614.794)">
                <path d="M1612.15,484.562C1618.56,477.779 1624.34,470.725 1629.8,463.293C1617.94,453.006 1606.79,442.347 1596.81,430.523C1586.77,418.635 1578.07,405.837 1570.65,391.975C1567.39,394.609 1563.87,396.392 1559.92,397.299C1555.94,398.214 1551.95,397.744 1547.45,396.982C1564.07,430.251 1585.93,458.862 1612.15,484.562Z" style="fill:rgb(240,76,42);"/>
            </g>
            <g transform="matrix(0.390426,-0.44258,0.417355,0.414024,-804.185,614.794)">
                <path d="M1344.88,386.538C1344.25,386.868 1343.84,387.047 1343.46,387.286C1338.53,390.42 1333.54,393.434 1328,395.393C1327,395.748 1326.74,396.473 1326.4,397.292C1324.64,401.49 1323.12,405.814 1321.02,409.836C1313.04,425.112 1303.39,439.335 1293.02,453.058C1284.08,464.876 1274.06,475.76 1263.64,486.281C1262.99,486.935 1262.37,487.62 1261.7,488.334C1269.58,496.393 1277.68,503.791 1286.45,510.585C1287.09,509.8 1287.56,509.261 1287.98,508.692C1292.93,502.11 1297.89,495.534 1302.82,488.937C1322.57,462.488 1338.75,433.985 1351.65,403.615C1352.36,401.945 1352.99,400.24 1353.68,398.473C1348.91,395.786 1344.84,392.773 1344.88,386.538Z" style="fill:rgb(240,76,42);"/>
            </g>
            <g transform="matrix(0.390426,-0.44258,0.417355,0.414024,-804.185,614.794)">
                <path d="M1434,139.156C1438.36,141.496 1442.77,153.913 1442.99,159.592C1443.22,165.402 1441.41,172.043 1434.9,172.843C1433.97,172.958 1434.44,160.14 1434.12,157.818C1433.38,152.605 1433.56,147.259 1433.72,142.042C1433.73,141.624 1433.27,138.758 1434,139.156Z" style="fill:rgb(229,152,36);"/>
            </g>
            <g transform="matrix(0.390426,-0.44258,0.417355,0.414024,-804.185,614.794)">
                <path d="M1549.77,532.99C1560.73,527.049 1570.91,520.555 1580.6,513.15C1580.08,512.451 1579.75,512.002 1579.41,511.562C1574.4,505.035 1569.25,498.603 1564.38,491.964C1549.19,471.23 1535.35,449.669 1524.47,426.306C1520.63,418.05 1516.57,409.887 1513.95,401.125C1513.81,400.682 1513.58,400.27 1513.34,399.718C1504.74,402.335 1496.97,400.376 1489.47,395.337C1489.63,396.4 1489.67,397.036 1489.83,397.64C1491.93,405.758 1493.98,413.888 1496.17,421.983C1499.57,434.585 1504.6,446.601 1509.59,458.627C1518.21,479.42 1528.98,499.103 1540.62,518.328C1543.55,523.174 1546.61,527.941 1549.77,532.99Z" style="fill:rgb(240,76,42);"/>
            </g>
            <g transform="matrix(0.390426,-0.44258,0.417355,0.414024,-804.185,614.794)">
                <path d="M1485.3,121.53C1474.5,127.631 1475.42,137.295 1481.56,152.18C1483.1,155.924 1475.01,160.964 1473.92,147.618C1473.38,141.078 1470.78,134.603 1465.94,130.231C1461.12,125.87 1457.35,124.888 1460.37,117.669C1461.54,114.855 1468.99,114.198 1472.25,116.242C1474.4,117.583 1480.13,120.284 1482.77,121.119C1484.17,121.563 1485.97,121.156 1485.3,121.53Z" style="fill:rgb(229,152,36);"/>
            </g>
            <g transform="matrix(0.390426,-0.44258,0.417355,0.414024,-804.185,614.794)">
                <path d="M1509.5,549.909C1484.94,504.329 1467.53,456.467 1460.15,404.951C1451.71,407.067 1444.46,404.799 1437.97,398.975C1437.89,399.709 1437.83,400.006 1437.84,400.3C1438.19,408.598 1437.52,416.925 1438.69,425.203C1439.6,431.604 1440.08,438.073 1441.15,444.443C1445.54,470.419 1453.43,495.33 1464.33,519.296C1469.66,531.012 1475.34,542.551 1482.11,553.518C1482.81,554.654 1483.58,555.751 1484.24,556.76C1490.37,555.9 1506.34,551.57 1509.5,549.909Z" style="fill:rgb(240,76,42);"/>
            </g>
            <g transform="matrix(0.390426,-0.44258,0.417355,0.414024,-804.185,614.794)">
                <path d="M1356.36,548.697C1381,503.024 1398.84,455.103 1406.86,403.611C1397.91,399.262 1393.84,391.532 1392.12,381.753C1390.85,383.601 1389.87,385.124 1388.8,386.583C1387.61,388.192 1385.97,389.584 1385.23,391.362C1384.48,393.137 1384.74,395.304 1384.31,397.245C1382.41,405.903 1380.63,414.596 1378.42,423.174C1374.49,438.382 1368.38,452.821 1362.14,467.181C1352.16,490.181 1339.88,511.95 1326.29,532.995C1325.83,533.702 1325.39,534.416 1324.87,535.234C1335.15,540.521 1345.47,544.934 1356.36,548.697Z" style="fill:rgb(240,76,42);"/>
            </g>
            <g transform="matrix(0.390426,-0.44258,0.417355,0.414024,-804.185,614.794)">
                <path d="M1266.95,387.727C1287.36,405.139 1400.23,424.27 1427.81,425.687C1467.3,427.717 1543.76,414.77 1575.75,397.654C1590.01,390.023 1599.21,386.525 1574.17,385.455C1564.06,385.022 1567.08,403.766 1541.47,390.077C1538.53,388.502 1525.56,382.333 1523.97,384.102C1520.45,388.004 1527.68,394.942 1514.17,397.757C1504.81,399.706 1510.72,398.532 1501.57,397.406C1489.78,395.954 1492.16,397.454 1486.47,387.205C1485.16,384.847 1477.11,378.988 1476.72,380.005C1474.16,386.69 1474.55,403.586 1460.47,401.854C1449.59,400.515 1447.33,402.337 1438.47,394.783C1437.16,393.665 1431.44,398.487 1427.02,399.257C1416.71,401.049 1419.11,406.506 1410.17,397.577C1404.15,391.553 1398.46,401.642 1394.47,382.98C1392.88,375.549 1387.21,382.496 1384.25,385.98C1383.46,386.907 1375.78,395.448 1375.7,395.683C1364.88,399.288 1366.67,405.479 1356.1,395.254C1350.32,389.67 1346.77,396.843 1346.77,383.28C1346.77,382.749 1329.55,395.571 1318.25,394.68C1307.32,393.819 1316.19,395.816 1307.09,390.48C1303.16,388.173 1296.03,389.229 1297.55,382.157C1297.16,382.048 1293.31,387.78 1287.7,387.78C1277.4,387.78 1272.3,383.579 1269.97,383.579C1267.1,383.579 1266.09,386.994 1266.95,387.727Z" style="fill:rgb(193,58,38);"/>
            </g>
            <g transform="matrix(0.390426,-0.44258,0.417355,0.414024,-804.185,614.794)">
                <path d="M1545.44,535.081C1544.57,533.755 1543.79,532.561 1543.02,531.357C1530.71,512.158 1519.49,492.355 1510.16,471.536C1503.3,456.228 1496.77,440.761 1492.3,424.547C1489.38,413.924 1486.7,403.225 1485.41,392.24C1485.36,391.859 1485.28,391.425 1485.06,391.129C1482.85,388.119 1480.6,385.133 1478.2,381.928C1476.57,391.594 1472.35,399.395 1463.48,403.655C1471.58,455.259 1489.42,503.111 1513.94,548.591C1521.33,546.498 1540.15,538.426 1545.44,535.081Z" style="fill:white;"/>
            </g>
            <g transform="matrix(0.390426,-0.44258,0.417355,0.414024,-804.185,614.794)">
                <path d="M1435.28,206.846C1434.12,208.202 1434.11,208.202 1433.52,210.931C1429.83,227.776 1423.52,243.601 1414.89,258.509C1405.78,274.254 1395.35,289.091 1383.82,303.156C1376.65,311.9 1368.89,320.062 1360.01,327.103C1351.45,333.891 1342,339.24 1332.28,344.156C1323.11,348.793 1313.55,352.294 1303.47,354.35C1296.59,355.753 1289.7,357.089 1282.83,358.561C1277.51,359.702 1272.97,362.193 1269.64,366.645C1267.71,369.215 1267.26,371.995 1268.15,375.033C1269.67,380.199 1274.74,384.122 1280.23,384.497C1285.66,384.868 1290.39,382.753 1295.04,380.4C1295.47,380.184 1295.82,379.6 1295.99,379.113C1297.22,375.582 1299.5,372.781 1302.44,370.652C1305.6,368.37 1308.87,366.133 1312.37,364.44C1317.6,361.903 1323.04,359.781 1328.45,357.621C1338.87,353.461 1348.91,348.646 1358.05,342.033C1365.14,336.907 1371.94,331.5 1377.75,324.923C1378.37,324.223 1379.02,323.535 1379.98,324.08C1381.08,324.711 1380.76,325.747 1380.29,326.61C1379.44,328.142 1378.68,329.781 1377.54,331.082C1375.4,333.548 1373.18,336.011 1370.7,338.118C1359.4,347.686 1347.04,355.545 1333.23,361.033C1327.81,363.185 1322.39,365.34 1317.05,367.67C1312.71,369.565 1308.63,371.979 1305.32,375.421C1303.96,376.829 1302.79,378.526 1301.95,380.289C1300.88,382.521 1301.47,384.654 1303.35,386.364C1306.36,389.101 1309.87,390.588 1313.95,390.779C1318.78,391.005 1323.37,389.927 1327.68,387.949C1341.69,381.524 1354.5,373.398 1364.44,361.312C1365.9,359.526 1367.58,357.907 1369.21,356.262C1369.88,355.597 1370.77,355.278 1371.58,355.963C1372.31,356.578 1372.1,357.408 1371.69,358.158C1371.31,358.862 1370.97,359.594 1370.51,360.241C1368.7,362.78 1367.06,365.485 1364.97,367.77C1360.55,372.604 1355.9,377.233 1351.3,381.905C1347.98,385.284 1348.05,389.148 1351.9,391.929C1356.32,395.128 1361.38,396.534 1366.84,395.732C1373.52,394.752 1378.7,391.158 1382.72,385.876C1384.75,383.209 1386.69,380.445 1388.4,377.564C1393.62,368.767 1398.83,359.942 1401.99,350.127C1404.57,342.146 1407.17,334.169 1409.53,326.123C1410.92,321.385 1411.86,316.515 1413.01,311.706C1413.12,311.241 1413.15,310.663 1413.44,310.36C1414.42,309.357 1415.66,309.187 1416.19,310.739C1416.41,311.389 1416.31,312.16 1416.29,312.878C1416.2,317.473 1415.19,321.925 1413.94,326.303C1411.66,334.289 1409.06,342.186 1406.87,350.197C1404.58,358.585 1400.87,366.361 1397.12,374.127C1396.28,375.871 1395.8,377.551 1396.09,379.412C1397.37,387.568 1401.18,394.012 1408.87,397.639C1414.4,400.248 1419.92,400.01 1425.1,396.708C1427.38,395.257 1429.37,393.357 1431.51,391.688C1432.76,390.715 1433.07,389.478 1433.07,387.924C1433.05,372.966 1433.1,358.007 1433.12,343.049C1433.14,333.449 1433.15,323.85 1433.17,314.251C1433.17,313.457 1433.2,312.645 1433.36,311.873C1433.58,310.869 1434.32,310.464 1435.33,310.516C1436.26,310.564 1436.85,311.032 1436.98,311.941C1437.1,312.728 1437.16,313.531 1437.17,314.327C1437.21,327.766 1437.24,341.204 1437.26,354.643C1437.28,365.842 1437.3,377.041 1437.27,388.24C1437.26,389.525 1437.5,390.565 1438.55,391.387C1440.8,393.164 1442.9,395.188 1445.3,396.733C1450.4,400.002 1455.87,400.236 1461.32,397.727C1468.95,394.22 1472.85,387.881 1474.2,379.835C1474.46,378.299 1474.52,376.684 1473.76,375.141C1469.56,366.694 1465.82,358.087 1463.08,349.007C1460.28,339.745 1457.43,330.522 1455.79,320.97C1455.27,317.979 1454.64,315.006 1454.18,312.006C1453.99,310.773 1454.64,309.968 1455.56,309.834C1456.46,309.703 1457.13,310.336 1457.44,311.585C1458.87,317.319 1460.25,323.067 1461.75,328.784C1465.44,342.884 1469.89,356.7 1477.21,369.426C1480.41,374.969 1483.49,380.572 1487.42,385.654C1490.36,389.46 1493.92,392.462 1498.38,394.336C1505.12,397.167 1511.52,396.101 1517.65,392.55C1518.59,392.004 1519.41,391.159 1520.11,390.3C1521.82,388.17 1521.87,385.691 1520.33,383.417C1519.88,382.763 1519.31,382.185 1518.74,381.628C1516.4,379.329 1514.02,377.079 1511.7,374.761C1507.56,370.624 1503.74,366.212 1500.55,361.292C1499.81,360.154 1499.07,358.998 1498.52,357.765C1498.32,357.296 1498.43,356.276 1498.76,356.067C1499.24,355.758 1500.12,355.753 1500.69,355.977C1501.32,356.224 1501.84,356.833 1502.32,357.357C1503.79,358.94 1505.22,360.555 1506.66,362.165C1508.37,364.073 1509.89,366.181 1511.79,367.868C1520.99,376.035 1531.06,382.931 1542.39,387.848C1546.81,389.77 1551.42,390.997 1556.34,390.783C1560.52,390.6 1564.09,389.08 1567.14,386.25C1568.84,384.667 1569.41,382.674 1568.52,380.583C1567.82,378.929 1566.87,377.232 1565.6,376.002C1563.54,374.018 1561.24,372.236 1558.85,370.664C1553.88,367.396 1548.3,365.352 1542.76,363.309C1527.92,357.838 1514.32,350.208 1502.13,340.154C1498.81,337.42 1495.8,334.288 1492.88,331.125C1491.56,329.697 1490.72,327.788 1489.85,326.006C1489.63,325.549 1489.93,324.451 1490.34,324.184C1490.73,323.927 1491.6,324.308 1492.22,324.519C1492.48,324.607 1492.63,324.988 1492.85,325.217C1494.53,326.938 1496.14,328.722 1497.89,330.36C1510.35,342.028 1524.57,350.889 1540.48,357.061C1544.94,358.793 1549.4,360.549 1553.81,362.42C1558.52,364.422 1563.06,366.775 1567.12,369.954C1570.32,372.456 1573.05,375.302 1574.44,379.241C1574.63,379.77 1575.15,380.311 1575.66,380.575C1578.86,382.23 1582.15,383.705 1585.73,384.301C1590.48,385.09 1594.8,384.089 1598.5,380.905C1603.45,376.645 1603.94,370.347 1599.71,365.42C1597.91,363.325 1595.82,361.556 1593.25,360.563C1590.66,359.56 1587.99,358.676 1585.28,358.081C1578.5,356.593 1571.66,355.371 1564.87,353.912C1552.41,351.232 1541.02,345.905 1529.88,339.874C1514.92,331.779 1502.05,321.182 1490.95,308.348C1478.99,294.522 1468.39,279.714 1458.81,264.162C1452.68,254.202 1447.41,243.807 1443.3,232.838C1440.61,225.642 1438.51,218.274 1436.8,210.788C1436.49,209.428 1436.4,207.936 1435.28,206.846Z" style="fill:rgb(240,76,42);"/>
            </g>
            <g transform="matrix(0.390426,-0.44258,0.417355,0.414024,-804.185,614.794)">
                <path d="M1232.9,321.869C1232.55,322.447 1232.38,322.692 1232.25,322.956C1230.49,326.536 1228.71,330.11 1226.98,333.706C1226.23,335.26 1225.21,336.522 1223.74,337.458C1221.46,338.918 1219.21,340.437 1216.95,341.943C1215.97,342.593 1215.02,343.275 1213.78,344.134C1214.96,344.959 1215.84,345.603 1216.75,346.207C1218.94,347.669 1221.11,349.159 1223.35,350.549C1224.97,351.557 1226.13,352.924 1226.96,354.604C1228.66,358.039 1230.34,361.48 1232.05,364.91C1232.27,365.348 1232.6,365.732 1232.98,366.297C1233.94,364.32 1234.77,362.599 1235.6,360.877C1239.99,351.775 1240,351.783 1248.5,346.507C1249.61,345.818 1250.64,344.999 1251.9,344.102C1250.74,343.296 1249.9,342.697 1249.04,342.126C1246.58,340.487 1244.13,338.848 1241.66,337.232C1240.28,336.333 1239.33,335.157 1238.63,333.638C1236.86,329.801 1234.94,326.034 1232.9,321.869Z" style="fill:rgb(255,200,36);"/>
            </g>
            <g transform="matrix(0.390426,-0.44258,0.417355,0.414024,-804.185,614.794)">
                <path d="M1572.7,389.533C1588.05,416.787 1608.65,439.425 1632.4,459.716C1636.64,453.645 1640.57,447.691 1644.07,441.432C1643.46,440.922 1643.1,440.607 1642.73,440.31C1633.39,432.855 1624.81,424.602 1617.01,415.545C1610.09,407.493 1604.23,398.761 1600.57,388.693C1600.47,388.413 1600.3,388.159 1600.09,387.752C1599.58,388.025 1599.17,388.235 1598.77,388.461C1596,390.035 1593.03,390.752 1589.84,390.824C1585.23,390.928 1581.01,389.678 1577,387.525C1576.17,387.083 1575.33,386.682 1574.46,386.244C1573.85,387.384 1573.32,388.366 1572.7,389.533Z" style="fill:white;"/>
            </g>
            <g transform="matrix(0.390426,-0.44258,0.417355,0.414024,-804.185,614.794)">
                <path d="M1320.46,203.721C1322.48,199.663 1324.45,195.834 1326.28,191.933C1326.98,190.419 1327.95,189.232 1329.3,188.324C1331.56,186.813 1333.83,185.323 1336.08,183.804C1337.17,183.07 1338.23,182.29 1339.49,181.395C1338.34,180.588 1337.51,179.977 1336.66,179.407C1334.4,177.901 1332.14,176.392 1329.85,174.924C1328.19,173.855 1327.01,172.435 1326.16,170.64C1324.34,166.824 1322.42,163.061 1320.52,159.24C1320.36,159.408 1320.22,159.503 1320.15,159.637C1318.22,163.583 1316.36,167.559 1314.35,171.465C1313.83,172.483 1313.03,173.477 1312.11,174.147C1309.66,175.935 1307.07,177.534 1304.55,179.221C1303.58,179.873 1302.62,180.56 1301.38,181.425C1302.69,182.335 1303.71,183.065 1304.75,183.761C1306.94,185.226 1309.14,186.672 1311.34,188.128C1312.84,189.123 1313.91,190.431 1314.7,192.084C1316.5,195.906 1318.44,199.666 1320.46,203.721Z" style="fill:rgb(255,200,36);"/>
            </g>
            <g transform="matrix(0.390426,-0.44258,0.417355,0.414024,-804.185,614.794)">
                <path d="M1523.62,220.791C1522.58,220.076 1521.82,219.538 1521.05,219.022C1518.73,217.468 1516.41,215.894 1514.06,214.384C1512.39,213.313 1511.19,211.884 1510.33,210.111C1508.69,206.731 1507.02,203.369 1505.34,200.008C1505.13,199.572 1504.8,199.191 1504.44,198.661C1502.41,202.768 1500.56,206.665 1498.56,210.482C1497.96,211.64 1497.09,212.791 1496.06,213.572C1493.78,215.307 1491.3,216.796 1488.92,218.404C1487.83,219.139 1486.77,219.921 1485.49,220.828C1488.79,223.035 1491.73,225.089 1494.76,227.002C1496.52,228.113 1497.78,229.576 1498.69,231.404C1500.36,234.768 1502.02,238.136 1503.7,241.494C1503.93,241.945 1504.24,242.354 1504.64,242.981C1505.8,240.567 1506.93,238.459 1507.86,236.265C1510.26,230.59 1514.13,226.328 1519.61,223.479C1520.92,222.795 1522.09,221.828 1523.62,220.791Z" style="fill:rgb(255,200,36);"/>
            </g>
            <g transform="matrix(0.390426,-0.44258,0.417355,0.414024,-804.185,614.794)">
                <path d="M1645.81,325.207C1644.76,324.465 1643.93,323.852 1643.07,323.279C1640.81,321.772 1638.56,320.257 1636.27,318.791C1634.46,317.632 1633.2,316.067 1632.27,314.137C1630.48,310.41 1628.61,306.726 1626.69,302.865C1626.36,303.523 1626.11,304.017 1625.86,304.51C1624.21,307.794 1622.6,311.092 1620.91,314.356C1619.91,316.294 1618.57,317.955 1616.67,319.133C1614.7,320.349 1612.79,321.662 1610.86,322.951C1609.83,323.641 1608.83,324.371 1607.58,325.242C1609.38,326.398 1610.89,327.444 1612.46,328.365C1616.83,330.918 1620.51,334.081 1622.52,338.907C1623.51,341.262 1624.73,343.52 1625.85,345.817C1626.1,346.323 1626.39,346.807 1626.72,347.408C1628.58,343.698 1630.34,340.206 1632.08,336.706C1633.24,334.369 1634.82,332.43 1637.06,331.011C1639.89,329.218 1642.64,327.314 1645.81,325.207Z" style="fill:rgb(255,200,36);"/>
            </g>
            <g transform="matrix(0.390426,-0.44258,0.417355,0.414024,-804.185,614.794)">
                <path d="M1608.51,488.468C1608.42,488.229 1608.4,488.05 1608.3,487.943C1607.65,487.241 1606.99,486.547 1606.31,485.864C1593.63,472.964 1581.5,459.581 1571.2,444.659C1560.72,429.469 1549.95,414.429 1543.73,396.777C1543.54,396.214 1542.85,395.648 1542.26,395.424C1536.92,393.395 1532.03,390.546 1527.24,387.494C1526.72,387.165 1526.17,386.899 1525.37,386.46C1525.65,392.874 1521.33,395.784 1516.75,398.469C1532.92,439.683 1556.51,476.219 1583.98,510.57C1592.79,503.632 1600.91,496.318 1608.51,488.468Z" style="fill:white;"/>
            </g>
            <g transform="matrix(0.390426,-0.44258,0.417355,0.414024,-804.185,614.794)">
                <path d="M1320.46,532.906C1321.02,532.108 1321.5,531.478 1321.93,530.814C1331.8,515.479 1341.01,499.761 1349.25,483.485C1363.05,456.208 1373.93,427.86 1380.43,397.917C1380.59,397.201 1380.67,396.47 1380.87,395.301C1373.27,400.498 1365.51,402.248 1356.96,399.74C1355.79,403.034 1354.82,406.243 1353.52,409.316C1345.21,429.021 1335.55,448.034 1323.88,465.973C1313.76,481.53 1303.1,496.715 1291.34,511.093C1290.8,511.742 1290.33,512.437 1289.77,513.176C1299.64,520.63 1309.75,527.144 1320.46,532.906Z" style="fill:white;"/>
            </g>
            <g transform="matrix(0.390426,-0.44258,0.417355,0.414024,-804.185,614.794)">
                <path d="M1275.47,361.373C1275.68,355.495 1261.83,372.306 1287.86,363.247C1296.68,360.176 1341.13,348.074 1343.44,337.301C1342.42,337.014 1313.27,350.084 1304.32,350.449C1295.49,350.809 1284.04,355.246 1276.79,359.647C1274.77,360.87 1275.54,359.524 1275.47,361.373Z" style="fill:rgb(242,104,78);"/>
            </g>
            <g transform="matrix(0.390426,-0.44258,0.417355,0.414024,-804.185,614.794)">
                <path d="M1305.32,375.421C1302.75,371.982 1299.61,378.783 1312.46,375.924C1328.93,372.258 1357.46,359.84 1365.17,343.524C1367.12,339.375 1344.47,353.717 1342.21,354.924C1332.36,360.176 1325.28,360.774 1313.98,366.924C1311.04,368.527 1303.27,372.675 1305.32,375.421Z" style="fill:rgb(242,104,78);"/>
            </g>
            <g transform="matrix(0.390426,-0.44258,0.417355,0.414024,-804.185,614.794)">
                <path d="M1552.04,347.428C1549.41,349.622 1531.82,345.698 1558.17,358.2C1568.08,362.905 1582.83,365.153 1593.71,363.345C1608.14,360.948 1576.63,351.867 1573.41,351.489C1568.4,350.903 1552,347.463 1552.04,347.428Z" style="fill:rgb(242,104,78);"/>
            </g>
            <g transform="matrix(0.390426,-0.44258,0.417355,0.414024,-804.185,614.794)">
                <path d="M1352.99,374.2C1355.48,377.099 1350.33,382.835 1361.14,375.872C1374.16,367.482 1396.14,331.741 1383.06,339.401C1377.57,342.619 1367.42,366.877 1354.84,374.321C1351.77,376.132 1355.55,377.177 1352.99,374.2Z" style="fill:rgb(242,104,78);"/>
            </g>
            <g transform="matrix(0.390426,-0.44258,0.417355,0.414024,-804.185,614.794)">
                <path d="M1407.87,346.628C1404.63,346.097 1403.07,358.008 1401.44,361.301C1391.03,382.365 1409.03,379.766 1413.39,347.124C1414.06,342.118 1408.48,337.047 1406.79,345.349C1406.64,346.067 1405.21,346.191 1407.87,346.628Z" style="fill:rgb(242,104,78);"/>
            </g>
            <g transform="matrix(0.390426,-0.44258,0.417355,0.414024,-804.185,614.794)">
                <path d="M1458.21,324.024C1450.3,326.156 1456.03,373.792 1471.56,372.649C1474.31,372.447 1464.19,346.6 1464.09,341.372C1464.07,340.522 1457.86,318.222 1458.21,324.024Z" style="fill:rgb(242,104,78);"/>
            </g>
            <g transform="matrix(0.390426,-0.44258,0.417355,0.414024,-804.185,614.794)">
                <path d="M1488.38,339.707C1484,337.22 1477.98,327.477 1483.29,345.795C1486.12,355.566 1497.41,370.106 1504.93,377.647C1512.24,384.979 1526.61,381.599 1510.89,369.572C1507.22,366.764 1491.48,344.877 1488.38,339.707Z" style="fill:rgb(242,104,78);"/>
            </g>
            <g transform="matrix(0.390426,-0.44258,0.417355,0.414024,-804.185,614.794)">
                <path d="M1534.11,357.324C1531.67,358.754 1517.88,353.179 1537.64,366.924C1545.08,372.097 1556.79,375.924 1565.89,375.924C1577.97,375.924 1553.54,364.265 1550.96,363.521C1546.96,362.367 1534.07,357.346 1534.11,357.324Z" style="fill:rgb(242,104,78);"/>
            </g>
            <g transform="matrix(0.390426,-0.44258,0.417355,0.414024,-804.185,614.794)">
                <path d="M1436.8,210.788C1437.03,210.968 1437.57,236.427 1441.06,244.9C1449.97,266.523 1458.81,282.194 1475.69,298.121C1477.93,300.241 1509.72,324.229 1495.21,308.423C1475.94,287.431 1462.92,266.391 1450.31,241.095C1446.81,234.073 1437.35,209.614 1437.34,209.749C1437.24,210.549 1436.28,210.384 1436.8,210.788Z" style="fill:rgb(242,104,78);"/>
            </g>
            <g transform="matrix(0.390426,-0.44258,0.417355,0.414024,-804.185,614.794)">
                <path d="M1396.19,376.693C1392.8,377.643 1402.93,395.979 1425.74,388.521C1435.17,385.44 1434.21,370.246 1435.54,381.726C1436.99,394.177 1452.59,394.121 1459.94,391.526C1470.08,387.945 1472.23,385.23 1475.92,372.124C1476.28,372.202 1482.86,378.729 1487.99,381.921C1494.9,386.222 1520.84,396.658 1520.84,377.649C1520.84,382.577 1543.03,385.749 1548.14,385.749C1558.59,385.749 1565.53,386.346 1570.29,376.599C1570.3,376.582 1566.83,377.534 1572.99,377.173C1587.12,376.344 1595.15,377.801 1603.86,364.221C1604.25,363.621 1605.97,369.59 1604.32,373.599C1602.39,378.279 1603.78,381.6 1595.62,386.524C1589.49,390.222 1580.97,389.738 1576.07,384.673C1571.81,380.269 1569.35,392.703 1561.04,393.724C1548.41,395.278 1541.47,389.193 1531.32,387.124C1527.56,386.36 1522.87,380.916 1523.24,390.398C1523.55,398.335 1502.57,404.255 1492.74,393.896C1488.51,389.435 1488.64,393.21 1484.16,384.176C1484.14,384.123 1475.67,373.453 1476.14,384.399C1476.25,386.96 1470.19,395.766 1466.24,397.976C1462.46,400.088 1461.72,405.225 1452.14,401.276C1447.71,399.448 1447.96,406.079 1435.12,394.496C1434.05,393.533 1427.88,399.24 1422.09,400.821C1413.98,403.039 1414.86,403.751 1405.34,400.522C1399.36,398.491 1389.91,382.388 1395.34,375.622C1395.85,374.985 1396.16,376.7 1396.19,376.693Z" style="fill:rgb(193,58,38);"/>
            </g>
            <g transform="matrix(0.390426,-0.44258,0.417355,0.414024,-804.185,614.794)">
                <path d="M1267.84,370.651C1262.41,373.871 1268.53,378.28 1270.99,382.776C1273.88,388.036 1292.81,389.709 1296.22,382.827C1298.02,379.199 1297.85,386.856 1303.34,389.453C1314.85,394.891 1311.9,397.856 1329.44,391.673C1331.33,391.008 1347.73,380.58 1346.92,382.45C1345.51,385.722 1346.47,391.843 1351.94,393.25C1358.2,394.86 1364.84,403.068 1377.14,394.973C1380.68,392.643 1399.6,369.377 1390.94,376.724C1380.34,385.725 1362,391.2 1350.22,382.947C1348.78,381.938 1353.82,371.799 1352.99,374.2C1343.83,377.374 1304.16,391.868 1300.92,375.426C1300.13,371.422 1272.22,386.752 1267.15,364.947C1267.11,364.775 1262.49,373.821 1267.84,370.651Z" style="fill:rgb(193,58,38);"/>
            </g>
            <g transform="matrix(0.390426,-0.44258,0.417355,0.414024,-804.185,614.794)">
                <path d="M1386.06,556.879C1386.87,555.646 1387.58,554.596 1388.25,553.517C1393.23,545.497 1397.56,537.125 1401.67,528.637C1412.96,505.327 1421.73,481.148 1427.07,455.76C1429.69,443.308 1431.76,430.792 1432.17,418.051C1432.35,412.14 1432.41,406.225 1432.52,400.312C1432.52,400.02 1432.45,399.727 1432.36,399.002C1425.87,404.831 1418.61,407.042 1409.96,404.908C1407.14,430.812 1400.07,455.446 1391.95,479.765C1383.82,504.102 1372.97,527.31 1360.77,550.136C1369.11,552.947 1377.42,555.055 1386.06,556.879Z" style="fill:white;"/>
            </g>
            <g transform="matrix(0.390426,-0.44258,0.417355,0.414024,-804.185,614.794)">
                <path d="M1258.18,484.549C1258.71,484.075 1259.02,483.83 1259.3,483.553C1276.66,466.208 1292.51,447.626 1305.76,426.898C1311.36,418.137 1316.95,409.379 1321.35,399.927C1321.75,399.048 1322.13,398.154 1322.67,396.921C1313.95,398.933 1306.41,397.397 1299.66,391.955C1284.93,420 1264.42,442.946 1240.54,463.264C1246.04,470.731 1251.8,477.749 1258.18,484.549Z" style="fill:white;"/>
            </g>
            <g transform="matrix(0.390426,-0.44258,0.417355,0.414024,-804.185,614.794)">
                <path d="M1232.9,321.869C1229.12,321.907 1228.73,325.273 1227.6,328.531C1223.77,339.578 1238.42,357.679 1250.29,348.344C1257.54,342.65 1250.22,338.585 1244.9,335.568C1235.94,330.487 1236.85,319.681 1232.55,319.681C1232.12,320.927 1231.32,321.885 1232.9,321.869Z" style="fill:rgb(252,226,140);"/>
            </g>
            <g transform="matrix(0.390426,-0.44258,0.417355,0.414024,-804.185,614.794)">
                <path d="M1503.68,195.929C1497.64,204.173 1499.08,219.148 1508.43,224.806C1512.79,227.448 1517.21,227.423 1521.34,224.742C1522.9,223.729 1527.72,222.498 1525.95,220.203C1521.36,214.239 1514.58,215.136 1510.61,204.565C1510.24,203.557 1505.83,192.447 1504.4,195.042C1504.25,195.315 1503.28,195.438 1503.65,196.392L1503.68,195.929Z" style="fill:rgb(252,226,140);"/>
            </g>
            <g transform="matrix(0.390426,-0.44258,0.417355,0.414024,-804.185,614.794)">
                <path d="M1625.81,300.479C1619.69,310.568 1623.06,321.289 1632.48,327.713C1636.23,330.272 1640.32,330.962 1643.96,327.949C1646.93,325.495 1648.72,325.635 1644.48,321.497C1640.97,318.076 1635.94,316.487 1634.58,311.819C1633.38,307.672 1632.49,307.149 1630.04,304.126C1629.92,303.984 1624.81,295.775 1625.93,300.398C1625.96,300.521 1625.87,300.651 1625.8,300.736L1625.81,300.479Z" style="fill:rgb(252,226,140);"/>
            </g>
            <g transform="matrix(0.390426,-0.44258,0.417355,0.414024,-804.185,614.794)">
                <path d="M1317.83,157.979C1300.83,177.779 1322.85,195.643 1331.81,189.179C1333.14,188.22 1342.08,182.227 1341.34,180.591C1339.56,176.646 1336.17,176.197 1332.68,171.668C1329.42,167.443 1324.63,163.919 1322.65,160.19C1322.36,159.649 1319.89,151.607 1317.94,157.679L1317.83,157.979Z" style="fill:rgb(252,226,140);"/>
            </g>
            <g transform="matrix(0.390426,-0.44258,0.417355,0.414024,-804.185,614.794)">
                <path d="M1461.77,138.947C1462.92,138.607 1463.78,138.441 1464.57,138.108C1466.5,137.292 1466.86,136.206 1465.87,134.314C1464.87,132.414 1463.18,131.29 1461.08,129.962C1461.32,133.132 1461.53,135.92 1461.77,138.947M1473.64,169.859C1474.54,159.072 1473.2,147.989 1470.13,141.023C1468.09,142.813 1465.76,143.952 1463.14,144.5C1455.36,146.124 1447.75,145.546 1440.28,142.901C1438.9,142.413 1437.5,141.98 1435.93,141.462C1436.58,146.624 1437.35,151.422 1437.75,156.251C1438.15,161.164 1438,166.1 1436.93,171.064C1449.55,175.561 1461.73,176.169 1473.64,169.859M1566.43,158.93C1566.41,158.834 1566.39,158.738 1566.37,158.641C1563.52,158.339 1560.64,158.152 1557.81,157.716C1546.83,156.027 1536.43,152.505 1526.51,147.57C1514.64,141.667 1502.91,135.507 1491.57,128.612C1485.21,124.74 1478.6,121.366 1471.27,119.702C1469.1,119.209 1466.87,118.778 1464.66,118.768C1461.62,118.755 1460.87,120.022 1461.66,122.934C1462.16,124.808 1463.29,126.157 1464.86,127.252C1466.89,128.665 1468.94,130.064 1470.35,132.193C1474.3,138.149 1476.86,144.615 1477.73,151.732C1477.77,152.091 1477.96,152.432 1478.08,152.778C1480.5,152.397 1482.77,151.893 1485.06,151.709C1492.06,151.148 1498.92,152.018 1505.66,153.949C1515.71,156.832 1525.79,159.498 1536.25,160.542C1544.17,161.332 1552.04,161.464 1559.9,160.211C1562.09,159.863 1564.25,159.362 1566.43,158.93M1572.7,389.533C1588.05,416.787 1608.65,439.425 1632.4,459.716C1636.64,453.645 1640.57,447.691 1644.07,441.432C1643.46,440.922 1643.1,440.607 1642.73,440.31C1633.39,432.855 1624.81,424.602 1617.01,415.545C1610.09,407.493 1604.23,398.761 1600.57,388.693C1600.47,388.413 1600.3,388.159 1600.09,387.752C1599.58,388.025 1599.17,388.235 1598.77,388.461C1596,390.035 1593.03,390.752 1589.84,390.824C1585.23,390.928 1581.01,389.678 1577,387.525C1576.17,387.083 1575.33,386.682 1574.46,386.244C1573.85,387.384 1573.32,388.366 1572.7,389.533M1237.99,459.706C1261.78,439.33 1282.42,416.687 1297.67,389.493C1297.01,388.316 1296.44,387.304 1295.81,386.186C1287.51,391.092 1279.12,392.923 1270.26,387.806C1270.08,388.145 1269.9,388.395 1269.8,388.672C1266.57,397.56 1261.62,405.445 1255.67,412.733C1247.56,422.678 1238.4,431.562 1228.45,439.657C1227.78,440.207 1227.11,440.765 1226.27,441.452C1229.85,447.659 1233.65,453.626 1237.99,459.706M1258.18,484.549C1258.71,484.075 1259.02,483.83 1259.3,483.553C1276.66,466.208 1292.51,447.626 1305.76,426.898C1311.36,418.137 1316.95,409.379 1321.35,399.927C1321.75,399.048 1322.13,398.154 1322.67,396.921C1313.95,398.933 1306.41,397.397 1299.66,391.955C1284.93,420 1264.42,442.946 1240.54,463.264C1246.04,470.731 1251.8,477.749 1258.18,484.549M1612.15,484.562C1618.56,477.779 1624.34,470.725 1629.8,463.293C1617.94,453.006 1606.79,442.347 1596.81,430.523C1586.77,418.635 1578.07,405.837 1570.65,391.975C1567.39,394.609 1563.87,396.392 1559.92,397.299C1555.94,398.214 1551.95,397.744 1547.45,396.982C1564.07,430.251 1585.93,458.862 1612.15,484.562M1344.88,386.538C1344.25,386.868 1343.84,387.047 1343.46,387.286C1338.53,390.42 1333.54,393.434 1328,395.393C1327,395.748 1326.74,396.473 1326.4,397.292C1324.64,401.49 1323.12,405.814 1321.02,409.836C1313.04,425.112 1303.39,439.335 1293.02,453.058C1284.08,464.876 1274.06,475.76 1263.64,486.281C1262.99,486.935 1262.37,487.62 1261.7,488.334C1269.58,496.393 1277.68,503.791 1286.45,510.585C1287.09,509.8 1287.56,509.261 1287.98,508.692C1292.93,502.11 1297.89,495.534 1302.82,488.937C1322.57,462.488 1338.75,433.985 1351.65,403.615C1352.36,401.945 1352.99,400.24 1353.68,398.473C1348.91,395.786 1344.84,392.773 1344.88,386.538M1608.51,488.468C1608.42,488.229 1608.4,488.05 1608.3,487.943C1607.65,487.241 1606.99,486.547 1606.31,485.864C1593.63,472.964 1581.5,459.581 1571.2,444.659C1560.72,429.469 1549.95,414.429 1543.73,396.777C1543.54,396.214 1542.85,395.648 1542.26,395.424C1536.92,393.395 1532.03,390.546 1527.24,387.494C1526.72,387.165 1526.17,386.899 1525.37,386.46C1525.65,392.874 1521.33,395.784 1516.75,398.469C1532.92,439.683 1556.51,476.219 1583.98,510.57C1592.79,503.632 1600.91,496.318 1608.51,488.468M1320.46,532.906C1321.02,532.108 1321.5,531.478 1321.93,530.814C1331.8,515.479 1341.01,499.761 1349.25,483.485C1363.05,456.208 1373.93,427.86 1380.43,397.917C1380.59,397.201 1380.67,396.47 1380.87,395.301C1373.27,400.498 1365.51,402.248 1356.96,399.74C1355.79,403.034 1354.82,406.243 1353.52,409.316C1345.21,429.021 1335.55,448.034 1323.88,465.973C1313.76,481.53 1303.1,496.715 1291.34,511.093C1290.8,511.742 1290.33,512.437 1289.77,513.176C1299.64,520.63 1309.75,527.144 1320.46,532.906M1549.77,532.99C1560.73,527.049 1570.91,520.555 1580.6,513.15C1580.08,512.451 1579.75,512.002 1579.41,511.562C1574.4,505.035 1569.25,498.603 1564.38,491.964C1549.19,471.23 1535.35,449.669 1524.47,426.306C1520.63,418.05 1516.57,409.887 1513.95,401.125C1513.81,400.682 1513.58,400.27 1513.34,399.718C1504.74,402.335 1496.97,400.376 1489.47,395.337C1489.63,396.4 1489.67,397.036 1489.83,397.64C1491.93,405.758 1493.98,413.888 1496.17,421.983C1499.57,434.585 1504.6,446.601 1509.59,458.627C1518.21,479.42 1528.98,499.103 1540.62,518.328C1543.55,523.174 1546.61,527.941 1549.77,532.99M1509.5,549.909C1484.94,504.329 1467.53,456.467 1460.15,404.951C1451.71,407.067 1444.46,404.799 1437.97,398.975C1437.89,399.709 1437.83,400.006 1437.84,400.3C1438.19,408.598 1437.52,416.925 1438.69,425.203C1439.6,431.604 1440.08,438.073 1441.15,444.443C1445.54,470.419 1453.43,495.33 1464.33,519.296C1469.66,531.012 1475.34,542.551 1482.11,553.518C1482.81,554.654 1483.58,555.751 1484.24,556.76C1490.37,555.9 1506.34,551.57 1509.5,549.909M1386.06,556.879C1386.87,555.646 1387.58,554.596 1388.25,553.517C1393.23,545.497 1397.56,537.125 1401.67,528.637C1412.96,505.327 1421.73,481.148 1427.07,455.76C1429.69,443.308 1431.76,430.792 1432.17,418.051C1432.35,412.14 1432.41,406.225 1432.52,400.312C1432.52,400.02 1432.45,399.727 1432.36,399.002C1425.87,404.831 1418.61,407.042 1409.96,404.908C1407.14,430.812 1400.07,455.446 1391.95,479.765C1383.82,504.102 1372.97,527.31 1360.77,550.136C1369.11,552.947 1377.42,555.055 1386.06,556.879M1356.36,548.697C1381,503.024 1398.84,455.103 1406.86,403.611C1397.91,399.262 1393.84,391.532 1392.12,381.753C1390.85,383.601 1389.87,385.124 1388.8,386.583C1387.61,388.192 1385.97,389.584 1385.23,391.362C1384.48,393.137 1384.74,395.304 1384.31,397.245C1382.41,405.903 1380.63,414.596 1378.42,423.174C1374.49,438.382 1368.38,452.821 1362.14,467.181C1352.16,490.181 1339.88,511.95 1326.29,532.995C1325.83,533.702 1325.39,534.416 1324.87,535.234C1335.15,540.521 1345.47,544.934 1356.36,548.697M1545.44,535.081C1544.57,533.755 1543.79,532.561 1543.02,531.357C1530.71,512.158 1519.49,492.355 1510.16,471.536C1503.3,456.228 1496.77,440.761 1492.3,424.547C1489.38,413.924 1486.7,403.225 1485.41,392.24C1485.36,391.859 1485.28,391.425 1485.06,391.129C1482.85,388.119 1480.6,385.133 1478.2,381.928C1476.57,391.594 1472.35,399.395 1463.48,403.655C1471.58,455.259 1489.42,503.111 1513.94,548.591C1521.33,546.498 1540.15,538.426 1545.44,535.081M1435.28,206.846C1434.12,208.202 1434.11,208.202 1433.52,210.931C1429.83,227.776 1423.52,243.601 1414.89,258.509C1405.78,274.254 1395.35,289.091 1383.82,303.156C1376.65,311.9 1368.89,320.062 1360.01,327.103C1351.45,333.891 1342,339.24 1332.28,344.156C1323.11,348.793 1313.55,352.294 1303.47,354.35C1296.59,355.753 1289.7,357.089 1282.83,358.561C1277.51,359.702 1272.97,362.193 1269.64,366.645C1267.71,369.215 1267.26,371.995 1268.15,375.033C1269.67,380.199 1274.74,384.122 1280.23,384.497C1285.66,384.868 1290.39,382.753 1295.04,380.4C1295.47,380.184 1295.82,379.6 1295.99,379.113C1297.22,375.582 1299.5,372.781 1302.44,370.652C1305.6,368.37 1308.87,366.133 1312.37,364.44C1317.6,361.903 1323.04,359.781 1328.45,357.621C1338.87,353.461 1348.91,348.646 1358.05,342.033C1365.14,336.907 1371.94,331.5 1377.75,324.923C1378.37,324.223 1379.02,323.535 1379.98,324.08C1381.08,324.711 1380.76,325.747 1380.29,326.61C1379.44,328.142 1378.68,329.781 1377.54,331.082C1375.4,333.548 1373.18,336.011 1370.7,338.118C1359.4,347.686 1347.04,355.545 1333.23,361.033C1327.81,363.185 1322.39,365.34 1317.05,367.67C1312.71,369.565 1308.63,371.979 1305.32,375.421C1303.96,376.829 1302.79,378.526 1301.95,380.289C1300.88,382.521 1301.47,384.654 1303.35,386.364C1306.36,389.101 1309.87,390.588 1313.95,390.779C1318.78,391.005 1323.37,389.927 1327.68,387.949C1341.69,381.524 1354.5,373.398 1364.44,361.312C1365.9,359.526 1367.58,357.907 1369.21,356.262C1369.88,355.597 1370.77,355.278 1371.58,355.963C1372.31,356.578 1372.1,357.408 1371.69,358.158C1371.31,358.862 1370.97,359.594 1370.51,360.241C1368.7,362.78 1367.06,365.485 1364.97,367.77C1360.55,372.604 1355.9,377.233 1351.3,381.905C1347.98,385.284 1348.05,389.148 1351.9,391.929C1356.32,395.128 1361.38,396.534 1366.84,395.732C1373.52,394.752 1378.7,391.158 1382.72,385.876C1384.75,383.209 1386.69,380.445 1388.4,377.564C1393.62,368.767 1398.83,359.942 1401.99,350.127C1404.57,342.146 1407.17,334.169 1409.53,326.123C1410.92,321.385 1411.86,316.515 1413.01,311.706C1413.12,311.241 1413.15,310.663 1413.44,310.36C1414.42,309.357 1415.66,309.187 1416.19,310.739C1416.41,311.389 1416.31,312.16 1416.29,312.878C1416.2,317.473 1415.19,321.925 1413.94,326.303C1411.66,334.289 1409.06,342.186 1406.87,350.197C1404.58,358.585 1400.87,366.361 1397.12,374.127C1396.28,375.871 1395.8,377.551 1396.09,379.412C1397.37,387.568 1401.18,394.012 1408.87,397.639C1414.4,400.248 1419.92,400.01 1425.1,396.708C1427.38,395.257 1429.37,393.357 1431.51,391.688C1432.76,390.715 1433.07,389.478 1433.07,387.924C1433.05,372.966 1433.1,358.007 1433.12,343.049C1433.14,333.449 1433.15,323.85 1433.17,314.251C1433.17,313.457 1433.2,312.645 1433.36,311.873C1433.58,310.869 1434.32,310.464 1435.33,310.516C1436.26,310.564 1436.85,311.032 1436.98,311.941C1437.1,312.728 1437.16,313.531 1437.17,314.327C1437.21,327.766 1437.24,341.204 1437.26,354.643C1437.28,365.842 1437.3,377.041 1437.27,388.24C1437.26,389.525 1437.5,390.565 1438.55,391.387C1440.8,393.164 1442.9,395.188 1445.3,396.733C1450.4,400.002 1455.87,400.236 1461.32,397.727C1468.95,394.22 1472.85,387.881 1474.2,379.835C1474.46,378.299 1474.52,376.684 1473.76,375.141C1469.56,366.694 1465.82,358.087 1463.08,349.007C1460.28,339.745 1457.43,330.522 1455.79,320.97C1455.27,317.979 1454.64,315.006 1454.18,312.006C1453.99,310.773 1454.64,309.968 1455.56,309.834C1456.46,309.703 1457.13,310.336 1457.44,311.585C1458.87,317.319 1460.25,323.067 1461.75,328.784C1465.44,342.884 1469.89,356.7 1477.21,369.426C1480.41,374.969 1483.49,380.572 1487.42,385.654C1490.36,389.46 1493.92,392.462 1498.38,394.336C1505.12,397.167 1511.52,396.101 1517.65,392.55C1518.59,392.004 1519.41,391.159 1520.11,390.3C1521.82,388.17 1521.87,385.691 1520.33,383.417C1519.88,382.763 1519.31,382.185 1518.74,381.628C1516.4,379.329 1514.02,377.079 1511.7,374.761C1507.56,370.624 1503.74,366.212 1500.55,361.292C1499.81,360.154 1499.07,358.998 1498.52,357.765C1498.32,357.296 1498.43,356.276 1498.76,356.067C1499.24,355.758 1500.12,355.753 1500.69,355.977C1501.32,356.224 1501.84,356.833 1502.32,357.357C1503.79,358.94 1505.22,360.555 1506.66,362.165C1508.37,364.073 1509.89,366.181 1511.79,367.868C1520.99,376.035 1531.06,382.931 1542.39,387.848C1546.81,389.77 1551.42,390.997 1556.34,390.783C1560.52,390.6 1564.09,389.08 1567.14,386.25C1568.84,384.667 1569.41,382.674 1568.52,380.583C1567.82,378.929 1566.87,377.232 1565.6,376.002C1563.54,374.018 1561.24,372.236 1558.85,370.664C1553.88,367.396 1548.3,365.352 1542.76,363.309C1527.92,357.838 1514.32,350.208 1502.13,340.154C1498.81,337.42 1495.8,334.288 1492.88,331.125C1491.56,329.697 1490.72,327.788 1489.85,326.006C1489.63,325.549 1489.93,324.451 1490.34,324.184C1490.73,323.927 1491.6,324.308 1492.22,324.519C1492.48,324.607 1492.63,324.988 1492.85,325.217C1494.53,326.938 1496.14,328.722 1497.89,330.36C1510.35,342.028 1524.57,350.889 1540.48,357.061C1544.94,358.793 1549.4,360.549 1553.81,362.42C1558.52,364.422 1563.06,366.775 1567.12,369.954C1570.32,372.456 1573.05,375.302 1574.44,379.241C1574.63,379.77 1575.15,380.311 1575.66,380.575C1578.86,382.23 1582.15,383.705 1585.73,384.301C1590.48,385.09 1594.8,384.089 1598.5,380.905C1603.45,376.645 1603.94,370.347 1599.71,365.42C1597.91,363.325 1595.82,361.556 1593.25,360.563C1590.66,359.56 1587.99,358.676 1585.28,358.081C1578.5,356.593 1571.66,355.371 1564.87,353.912C1552.41,351.232 1541.02,345.905 1529.88,339.874C1514.92,331.779 1502.05,321.182 1490.95,308.348C1478.99,294.522 1468.39,279.714 1458.81,264.162C1452.68,254.202 1447.41,243.807 1443.3,232.838C1440.61,225.642 1438.51,218.274 1436.8,210.788C1436.49,209.428 1436.4,207.936 1435.28,206.846M1222.99,435.125C1223.62,434.641 1224.25,434.188 1224.85,433.693C1233.42,426.577 1241.41,418.85 1248.75,410.475C1255.05,403.296 1260.59,395.591 1264.92,387.039C1265.92,385.058 1266.39,383.337 1264.88,381.346C1264.09,380.302 1263.67,378.907 1263.32,377.607C1261.69,371.536 1262.88,366.095 1267.65,361.88C1271.25,358.705 1275.23,355.979 1280,354.764C1283.33,353.919 1286.67,353.12 1290,352.307C1296.97,350.607 1304.04,349.204 1310.9,347.148C1322.46,343.69 1332.95,337.88 1343.26,331.713C1354.99,324.694 1364.93,315.623 1373.82,305.333C1383.77,293.814 1392.67,281.505 1401.07,268.829C1409.22,256.54 1416.43,243.729 1421.79,229.964C1424.78,222.3 1427.38,214.487 1430.17,206.747C1430.55,205.697 1430.75,204.411 1431.48,203.698C1432.96,202.258 1432.89,200.626 1432.79,198.855C1432.71,197.421 1432.7,195.979 1432.72,194.541C1432.79,188.622 1432.9,182.704 1432.96,176.785C1432.97,176.015 1433.03,174.969 1432.58,174.525C1431.43,173.374 1431.54,172.066 1431.65,170.721C1432.35,162.475 1432.15,154.274 1430.73,146.099C1430.3,143.587 1430.15,141.015 1430.02,138.462C1429.91,136.329 1431.13,135.414 1433.2,135.862C1433.51,135.929 1433.79,136.092 1434.1,136.179C1439.09,137.601 1444.08,139.036 1449.27,139.534C1452.04,139.8 1454.81,139.807 1457.64,139.529C1457.64,138.819 1457.65,138.349 1457.64,137.88C1457.43,132.288 1457.18,126.698 1457.03,121.105C1456.93,117.576 1458.9,114.993 1462.21,114.325C1463.61,114.044 1465.08,113.965 1466.5,114.033C1470.68,114.232 1474.72,115.136 1478.7,116.399C1485.69,118.62 1491.95,122.315 1498.26,125.923C1509.78,132.504 1521.49,138.737 1533.6,144.157C1548.55,150.843 1564.14,154.427 1580.63,153.441C1581.41,153.395 1582.25,153.44 1583,153.662C1584.71,154.17 1585.22,155.874 1584.07,157.261C1583.57,157.863 1582.92,158.408 1582.23,158.772C1580.26,159.816 1578.3,160.933 1576.21,161.703C1566.06,165.456 1555.53,167.233 1544.72,166.876C1533.58,166.508 1522.64,164.741 1511.96,161.408C1505.03,159.242 1498.05,157.235 1490.74,156.658C1486.5,156.323 1482.35,156.703 1478.06,157.571C1478.06,161.847 1477.99,165.921 1478.09,169.992C1478.15,172.475 1477.09,173.926 1474.87,175.021C1465.05,179.868 1454.82,180.534 1444.27,178.336C1442.17,177.898 1440.1,177.315 1437.85,176.758L1437.85,179.502C1437.86,186.3 1437.88,193.099 1437.85,199.897C1437.85,201.275 1437.88,202.552 1438.91,203.667C1439.37,204.162 1439.54,204.946 1439.78,205.621C1440.73,208.333 1441.7,211.042 1442.6,213.774C1447.57,228.852 1453.78,243.371 1461.93,257.022C1471.17,272.499 1481.58,287.155 1492.99,301.111C1502.93,313.273 1514.1,324.032 1527.71,332.094C1538.32,338.38 1549.13,344.271 1561.05,347.663C1568.18,349.691 1575.47,351.153 1582.71,352.793C1589.2,354.266 1595.51,356.046 1600.91,360.295C1604.77,363.334 1607.28,366.963 1607.68,371.92C1607.98,375.651 1606.94,379.068 1605.03,382.196C1604.26,383.45 1604.23,384.437 1604.84,385.728C1607.22,390.727 1610.05,395.459 1613.28,399.94C1622.7,413.005 1634.1,424.182 1646.44,434.45C1646.73,434.692 1647.07,434.876 1647.4,435.092C1693.31,354.024 1690.6,227.933 1598.54,142.882C1506.51,57.857 1364.37,57.727 1272.18,142.556C1179.86,227.516 1176.94,353.791 1222.99,435.125M1356.5,569.013C1354.2,569.262 1363.43,569.086 1356.5,569.013M1512.75,572.392C1511.18,572.461 1509.57,572.784 1508.07,573.259M1232.9,321.869C1232.55,322.447 1232.38,322.692 1232.25,322.956C1230.49,326.536 1228.71,330.11 1226.98,333.706C1226.23,335.26 1225.21,336.522 1223.74,337.458C1221.46,338.918 1219.21,340.437 1216.95,341.943C1215.97,342.593 1215.02,343.275 1213.78,344.134C1214.96,344.959 1215.84,345.603 1216.75,346.207C1218.94,347.669 1221.11,349.159 1223.35,350.549C1224.97,351.557 1226.13,352.924 1226.96,354.604C1228.66,358.039 1230.34,361.48 1232.05,364.91C1232.27,365.348 1232.6,365.732 1232.98,366.297C1233.94,364.32 1234.77,362.599 1235.6,360.877C1239.99,351.775 1240,351.783 1248.5,346.507C1249.61,345.818 1250.64,344.999 1251.9,344.102C1250.74,343.296 1249.9,342.697 1249.04,342.126C1246.58,340.487 1244.13,338.848 1241.66,337.232C1240.28,336.333 1239.33,335.157 1238.63,333.638C1236.86,329.801 1234.94,326.034 1232.9,321.869M1257.76,344.136C1257.8,342.756 1256.92,341.999 1255.91,341.263C1252.23,338.584 1248.56,335.887 1244.94,333.132C1244.27,332.623 1243.71,331.877 1243.3,331.133C1240.53,326.179 1237.85,321.179 1235.09,316.226C1233.68,313.702 1232.08,313.66 1230.69,316.132C1227.92,321.077 1225.24,326.078 1222.48,331.033C1222.06,331.779 1221.53,332.532 1220.87,333.058C1218.38,335.054 1215.82,336.979 1213.26,338.889C1211.92,339.891 1210.45,340.736 1209.14,341.781C1207.48,343.113 1207.52,345.127 1209.14,346.518C1209.56,346.88 1210.07,347.149 1210.51,347.482C1213.92,350.003 1217.34,352.497 1220.7,355.078C1221.42,355.638 1222.02,356.451 1222.48,357.262C1225.25,362.213 1227.92,367.214 1230.7,372.162C1232.03,374.533 1233.64,374.56 1234.97,372.254C1237.4,368.028 1239.97,363.862 1242.07,359.475C1243.45,356.604 1245.41,354.481 1247.88,352.677C1248.53,352.206 1249.17,351.722 1249.82,351.263C1251.92,349.796 1254.01,348.333 1256.12,346.879C1257.09,346.209 1257.8,345.402 1257.76,344.136M1320.46,203.721C1322.48,199.663 1324.45,195.834 1326.28,191.933C1326.98,190.419 1327.95,189.232 1329.3,188.324C1331.56,186.813 1333.83,185.323 1336.08,183.804C1337.17,183.07 1338.23,182.29 1339.49,181.395C1338.34,180.588 1337.51,179.977 1336.66,179.407C1334.4,177.901 1332.14,176.392 1329.85,174.924C1328.19,173.855 1327.01,172.435 1326.16,170.64C1324.34,166.824 1322.42,163.061 1320.52,159.24C1320.36,159.408 1320.22,159.503 1320.15,159.637C1318.22,163.583 1316.36,167.559 1314.35,171.465C1313.83,172.483 1313.03,173.477 1312.11,174.147C1309.66,175.935 1307.07,177.534 1304.55,179.221C1303.58,179.873 1302.62,180.56 1301.38,181.425C1302.69,182.335 1303.71,183.065 1304.75,183.761C1306.94,185.226 1309.14,186.672 1311.34,188.128C1312.84,189.123 1313.91,190.431 1314.7,192.084C1316.5,195.906 1318.44,199.666 1320.46,203.721M1345.29,181.343C1345.45,180.102 1344.59,179.326 1343.57,178.585C1339.95,175.961 1336.33,173.334 1332.77,170.623C1331.98,170.019 1331.31,169.145 1330.82,168.265C1328.05,163.321 1325.37,158.32 1322.6,153.374C1321.28,151.009 1319.68,150.999 1318.34,153.332C1315.95,157.485 1313.33,161.547 1311.37,165.898C1309.93,169.081 1307.65,171.195 1305.05,173.198C1304.23,173.833 1303.37,174.423 1302.52,175.018C1300.69,176.3 1298.82,177.538 1297.02,178.858C1295.63,179.871 1295.14,181.567 1295.94,182.837C1296.34,183.482 1297.04,183.971 1297.67,184.442C1301.19,187.068 1304.76,189.63 1308.24,192.306C1309.03,192.91 1309.66,193.811 1310.15,194.693C1312.92,199.637 1315.6,204.637 1318.38,209.578C1319.62,211.779 1321.28,211.787 1322.52,209.617C1325.03,205.251 1327.62,200.925 1329.84,196.417C1330.98,194.101 1332.46,192.272 1334.46,190.757C1335.22,190.177 1335.97,189.579 1336.75,189.025C1339.04,187.41 1341.32,185.799 1343.63,184.215C1344.6,183.547 1345.36,182.788 1345.29,181.343M1523.62,220.791C1522.58,220.076 1521.82,219.538 1521.05,219.022C1518.73,217.468 1516.41,215.894 1514.06,214.384C1512.39,213.313 1511.19,211.884 1510.33,210.111C1508.69,206.731 1507.02,203.369 1505.34,200.008C1505.13,199.572 1504.8,199.191 1504.44,198.661C1502.41,202.768 1500.56,206.665 1498.56,210.482C1497.96,211.64 1497.09,212.791 1496.06,213.572C1493.78,215.307 1491.3,216.796 1488.92,218.404C1487.83,219.139 1486.77,219.921 1485.49,220.828C1488.79,223.035 1491.73,225.089 1494.76,227.002C1496.52,228.113 1497.78,229.576 1498.69,231.404C1500.36,234.768 1502.02,238.136 1503.7,241.494C1503.93,241.945 1504.24,242.354 1504.64,242.981C1505.8,240.567 1506.93,238.459 1507.86,236.265C1510.26,230.59 1514.13,226.328 1519.61,223.479C1520.92,222.795 1522.09,221.828 1523.62,220.791M1529.44,220.812C1529.53,219.394 1528.57,218.619 1527.48,217.835C1523.86,215.212 1520.25,212.566 1516.7,209.839C1515.92,209.236 1515.31,208.324 1514.81,207.443C1512.04,202.496 1509.36,197.493 1506.57,192.555C1505.38,190.456 1503.84,190.477 1502.54,192.464C1502.45,192.598 1502.37,192.736 1502.29,192.875C1500.1,196.775 1497.58,200.534 1495.8,204.616C1494.1,208.518 1491.24,211.064 1487.97,213.397C1486.09,214.744 1484.18,216.057 1482.28,217.384C1481.82,217.705 1481.33,217.989 1480.9,218.344C1479.16,219.789 1479.17,221.791 1480.92,223.236C1481.36,223.59 1481.85,223.863 1482.3,224.197C1485.7,226.72 1489.12,229.216 1492.47,231.804C1493.2,232.363 1493.77,233.202 1494.22,234.016C1496.99,238.967 1499.67,243.968 1502.45,248.91C1503.71,251.142 1505.33,251.165 1506.59,248.987C1509.06,244.697 1511.68,240.462 1513.81,235.999C1515.11,233.265 1516.99,231.282 1519.28,229.521C1519.98,228.986 1520.69,228.469 1521.41,227.965C1523.5,226.497 1525.6,225.032 1527.71,223.582C1528.67,222.92 1529.44,222.156 1529.44,220.812M1645.81,325.207C1644.76,324.465 1643.93,323.852 1643.07,323.279C1640.81,321.772 1638.56,320.257 1636.27,318.791C1634.46,317.632 1633.2,316.067 1632.27,314.137C1630.48,310.41 1628.61,306.726 1626.69,302.865C1626.36,303.523 1626.11,304.017 1625.86,304.51C1624.21,307.794 1622.6,311.092 1620.91,314.356C1619.91,316.294 1618.57,317.955 1616.67,319.133C1614.7,320.349 1612.79,321.662 1610.86,322.951C1609.83,323.641 1608.83,324.371 1607.58,325.242C1609.38,326.398 1610.89,327.444 1612.46,328.365C1616.83,330.918 1620.51,334.081 1622.52,338.907C1623.51,341.262 1624.73,343.52 1625.85,345.817C1626.1,346.323 1626.39,346.807 1626.72,347.408C1628.58,343.698 1630.34,340.206 1632.08,336.706C1633.24,334.369 1634.82,332.43 1637.06,331.011C1639.89,329.218 1642.64,327.314 1645.81,325.207M1651.54,325.066C1651.59,323.782 1650.81,323.046 1649.84,322.373C1647.02,320.413 1644.23,318.407 1641.42,316.426C1639.15,314.824 1637.51,312.717 1636.19,310.276C1633.84,305.915 1631.23,301.691 1629,297.271C1627.88,295.051 1625.57,295.025 1624.47,297.155C1622.25,301.489 1619.56,305.592 1617.42,309.961C1616.09,312.655 1614.3,314.739 1611.94,316.458C1611.17,317.023 1610.4,317.608 1609.62,318.158C1607.52,319.627 1605.4,321.059 1603.33,322.55C1601.99,323.51 1601.45,324.719 1602.01,326.052C1602.35,326.864 1603.1,327.587 1603.83,328.14C1607.39,330.844 1611.05,333.43 1614.58,336.172C1615.42,336.82 1616.01,337.854 1616.55,338.805C1619.29,343.681 1621.93,348.609 1624.7,353.473C1625.84,355.479 1627.58,355.451 1628.74,353.431C1631.25,349.066 1633.85,344.741 1636.06,340.224C1637.27,337.743 1638.93,335.859 1641.03,334.237C1641.86,333.603 1642.69,332.982 1643.54,332.384C1645.7,330.866 1647.86,329.35 1650.04,327.862C1651.04,327.178 1651.64,326.319 1651.54,325.066M1594.33,182.101C1597.33,182.159 1599.67,179.91 1599.71,176.928C1599.76,173.969 1597.47,171.553 1594.54,171.474C1591.69,171.397 1589.19,173.81 1589.12,176.712C1589.04,179.629 1591.37,182.044 1594.33,182.101M1594.71,185.699C1594.74,185.699 1595.15,185.72 1595.54,185.696C1599.02,185.482 1601.72,183.989 1603.1,180.712C1604.56,177.244 1604.09,173.928 1601.5,171.133C1599.06,168.505 1595.94,167.496 1592.38,167.857C1589.91,168.107 1588,169.315 1586.65,171.363C1584.66,174.391 1584.18,177.659 1585.88,180.906C1587.63,184.219 1590.53,185.865 1594.71,185.699M1336.67,284.741C1336.63,281.801 1334.22,279.429 1331.32,279.474C1328.44,279.518 1326.03,282.013 1326.07,284.899C1326.11,287.828 1328.52,290.147 1331.47,290.107C1334.46,290.067 1336.71,287.741 1336.67,284.741M1331.58,293.704C1331.67,293.704 1331.99,293.714 1332.31,293.703C1338.49,293.507 1342.35,287.921 1340.31,282.119C1338.86,277.976 1334,275.236 1329.29,275.853C1326.83,276.175 1324.92,277.348 1323.59,279.405C1321.62,282.442 1321.14,285.706 1322.87,288.949C1324.63,292.255 1327.54,293.878 1331.58,293.704M1247.39,221.361C1247.34,218.424 1244.92,216.056 1242.02,216.114C1239.14,216.171 1236.74,218.675 1236.79,221.559C1236.85,224.491 1239.26,226.798 1242.21,226.748C1245.2,226.697 1247.44,224.361 1247.39,221.361M1242.11,230.341C1242.38,230.341 1242.78,230.361 1243.18,230.337C1246.75,230.128 1249.51,228.574 1250.86,225.175C1252.25,221.68 1251.67,218.399 1249.05,215.622C1247.16,213.615 1244.74,212.63 1242.01,212.438C1238.4,212.184 1235.57,213.555 1233.86,216.781C1229.77,224.453 1236.1,230.943 1242.11,230.341M1643.91,400.985C1646.9,400.969 1649.17,398.661 1649.15,395.667C1649.13,392.722 1646.75,390.338 1643.84,390.353C1640.98,390.367 1638.54,392.843 1638.55,395.732C1638.56,398.655 1640.95,401.002 1643.91,400.985M1644.16,404.579C1644.17,404.579 1644.57,404.6 1644.97,404.576C1648.44,404.367 1651.15,402.881 1652.53,399.608C1654,396.142 1653.54,392.825 1650.95,390.025C1648.52,387.392 1645.39,386.379 1641.83,386.734C1639.37,386.98 1637.45,388.182 1636.1,390.229C1634.11,393.252 1633.61,396.521 1635.32,399.771C1637.05,403.087 1639.95,404.737 1644.16,404.579M1553.15,311.636C1553.12,308.694 1550.72,306.319 1547.81,306.353C1544.94,306.387 1542.52,308.876 1542.55,311.763C1542.58,314.69 1544.98,317.018 1547.94,316.987C1550.93,316.955 1553.19,314.634 1553.15,311.636M1547.91,320.593C1552.23,320.588 1555.25,318.817 1556.62,315.487C1558.01,312.1 1557.29,308.247 1554.7,305.735C1552.26,303.38 1549.3,302.4 1545.93,302.72C1543.27,302.973 1541.26,304.295 1539.89,306.551C1538.07,309.562 1537.66,312.756 1539.38,315.898C1541.19,319.19 1544.11,320.776 1547.91,320.593M1384.19,109.134C1384.19,106.188 1381.82,103.796 1378.91,103.792C1376.04,103.789 1373.6,106.253 1373.59,109.145C1373.59,112.069 1375.97,114.427 1378.92,114.425C1381.91,114.423 1384.2,112.126 1384.19,109.134M1379.23,118.018C1379.25,118.018 1379.65,118.04 1380.05,118.015C1383.52,117.793 1386.22,116.29 1387.59,113.011C1389.04,109.539 1388.57,106.224 1385.96,103.435C1383.52,100.815 1380.39,99.811 1376.83,100.18C1374.37,100.436 1372.46,101.651 1371.12,103.703C1369.14,106.736 1368.66,110.002 1370.38,113.247C1372.13,116.557 1375.03,118.19 1379.23,118.018M1393.44,320.95C1393.78,320.089 1394.93,316.743 1393.47,316.375C1393.06,316.271 1392.36,316.576 1392.05,316.933C1391.43,317.651 1390.96,318.504 1390.49,319.337C1385.73,327.75 1380.98,336.17 1376.23,344.589C1376.12,344.798 1376,345.007 1375.89,345.22C1375.44,346.104 1375.04,347.016 1375.94,347.844C1376.61,348.466 1377.6,348.172 1378.64,347.118C1378.75,347.004 1378.86,346.881 1378.96,346.757C1385.29,338.999 1389.83,330.233 1393.44,320.95M1484.54,334.762C1483.79,333.726 1482.54,333.211 1482.08,334.722C1481.93,335.205 1482.02,335.849 1482.22,336.336C1484.19,341.146 1486.85,345.574 1489.89,349.775C1490.8,351.032 1492.21,351.276 1493.22,350.564C1494.24,349.84 1494.4,348.505 1493.45,347.17C1490.51,343.011 1487.53,338.883 1484.54,334.762M1477.27,302.215C1475.1,301.141 1474.73,302.838 1475.41,304.652C1477,308.924 1479.02,312.98 1481.62,316.729C1481.85,317.054 1482.1,317.372 1482.39,317.641C1483.1,318.303 1483.96,318.528 1484.8,318.002C1485.66,317.461 1485.75,316.594 1485.39,315.677C1485.27,315.382 1485.16,315.08 1485,314.809C1482.68,310.91 1480.35,307.014 1478.02,303.125C1477.82,302.786 1477.59,302.375 1477.27,302.215M1387.93,311.929C1388.79,310.181 1387.68,308.38 1386.24,309.57C1385.76,309.962 1385.4,310.518 1385.06,311.047C1384.06,312.579 1383.09,314.123 1382.14,315.683C1381.73,316.356 1381.21,317.054 1381.11,317.792C1381.02,318.375 1381.34,319.162 1381.75,319.635C1382.29,320.273 1383.08,320.02 1383.68,319.554C1384.05,319.27 1384.41,318.905 1384.62,318.498C1385.76,316.323 1386.85,314.129 1387.93,311.929M1643.96,462.276C1614.15,506.035 1574.32,537.379 1524.91,556.468C1509.61,562.382 1493.83,566.614 1477.64,569.321C1460.32,572.217 1442.9,573.411 1425.34,572.677C1372.52,570.472 1324.81,553.673 1282.82,521.635C1233.73,484.178 1202.35,435.066 1188.65,374.774C1182.01,345.542 1181.32,321.775 1184.32,292.702C1185.89,277.565 1188.89,262.706 1193.31,248.152C1208.33,198.738 1235.74,157.492 1275.77,124.902C1333.98,77.508 1398.79,62.025 1469.79,70.532C1482.49,72.055 1494.96,74.832 1507.2,78.547C1559.8,94.51 1602.99,124.252 1636.22,167.996C1701.68,254.167 1704.78,372.974 1643.96,462.276" style="fill:rgb(35,31,32);"/>
            </g>
        </g>
    </g>
</svg>
